<?xml version="1.0" encoding="UTF-8"?>
<svg width="47px" height="39px" viewBox="0 0 47 39" version="1.1" xmlns="http://www.w3.org/2000/svg" xmlns:xlink="http://www.w3.org/1999/xlink">
    <!-- Generator: Sketch 44.1 (41455) - http://www.bohemiancoding.com/sketch -->
    <title>Fill 1</title>
    <desc>Created with Sketch.</desc>
    <defs></defs>
    <g id="Reservation" stroke="none" stroke-width="1" fill="none" fill-rule="evenodd">
        <g id="Pins" transform="translate(-174.000000, -148.000000)" fill="#FFFFFF">
            <g id="Group" transform="translate(154.000000, 126.000000)">
                <path d="M24.3862056,53.2639784 C24.3710778,53.2856919 24.35595,53.3070311 24.3408222,53.3283703 C24.3473589,53.3850875 24.3550162,53.4414304 24.3602455,53.4977733 C24.4269199,54.198222 24.4777194,54.9001682 24.5649376,55.597622 C24.6370281,56.1780847 24.8473231,56.7188641 25.146704,57.2255756 C25.2617499,57.4206231 25.422366,57.4002198 25.5859703,57.3217891 C25.7447187,57.2457917 25.7647023,57.1205645 25.7000824,56.9554667 C25.615292,56.7383314 25.5592632,56.5099649 25.4888536,56.2874011 C25.1887256,55.3348133 24.8906521,54.3814768 24.5813728,53.4320711 C24.5587745,53.3626252 24.4532534,53.3193854 24.3862056,53.2639784 M22.2068696,42.678068 C22.1769875,42.6782552 22.1469187,42.6786296 22.1172234,42.6788167 C22.1011618,42.7585578 22.0703459,42.8386733 22.0710929,42.9182272 C22.0847266,44.8161026 22.1020956,46.7134164 22.1187175,48.6111046 C22.1187175,48.6193407 22.1155425,48.6298231 22.1192778,48.6354387 C22.1936094,48.7490604 22.2473971,48.9186506 22.3512373,48.9577724 C22.4334129,48.9888452 22.6117715,48.8873906 22.6872237,48.796044 C22.8678234,48.5781599 23.0232101,48.3374391 23.1703792,48.0950337 C23.4456677,47.6427932 23.595078,47.1366431 23.5820046,46.6205723 C23.5674371,46.0504048 23.4223224,45.4953993 23.1718733,44.9656639 C22.8894879,44.3683545 22.655474,43.7491443 22.4005427,43.1394806 C22.3361095,42.9854268 22.2713027,42.8317474 22.2068696,42.678068 M48.483846,59.3724079 C48.6244784,59.6355909 48.7688461,59.8965278 48.904436,60.1623314 C49.0594492,60.4655721 48.9832499,60.6709148 48.6519326,60.7573946 C48.3613295,60.8332048 48.0585869,60.8989069 47.7607001,60.9024635 C47.1077771,60.911074 46.4544806,60.8779421 45.8013708,60.8605339 C45.5667966,60.8541696 45.4151452,60.7802312 45.3327827,60.5196688 C45.0948468,59.7669953 44.8048041,59.0339762 44.6524056,58.2515402 C44.5143878,57.54454 44.5396008,56.8639329 44.6903184,56.1672279 C44.8742799,55.3155332 44.9581364,54.4570998 44.7825793,53.5857505 C44.7078741,53.2143742 44.698536,52.8289589 44.6729495,52.4491592 C44.633169,51.8569038 44.5777004,51.2638997 44.5791945,50.6714571 C44.5818092,49.9397483 44.6400792,49.2078524 44.6656657,48.4757693 C44.6778053,48.1319093 44.6759377,47.7873005 44.6675334,47.4432532 C44.6632378,47.2671115 44.5442699,47.1707109 44.3728215,47.1916757 C44.0166647,47.2351028 43.6629358,47.2976228 43.3084599,47.3545272 C42.5350748,47.4788185 41.7629971,47.611346 40.9884915,47.7274011 C39.7911547,47.9070993 38.5826121,47.9121533 37.3787386,47.8674159 C35.8476565,47.8110731 34.3193759,47.6849099 32.866174,47.1409484 C32.3927301,46.9638708 31.9286243,46.7620846 31.4607833,46.5711553 C31.064846,46.4096141 30.897133,46.3882749 30.5908418,46.7237116 C29.8006481,47.5881349 28.9798253,48.4269139 28.2256768,49.3209126 C27.5305453,50.1445294 27.0686808,51.1092843 26.9153484,52.1773657 C26.7943261,53.0191396 26.9403747,53.8440667 27.2681435,54.639793 C27.5708861,55.375807 28.05068,56.0023174 28.4793008,56.6613981 C28.729563,57.0462518 28.707525,57.1252441 28.2570529,57.272372 C27.9694381,57.3663392 27.7163744,57.4887587 27.5936712,57.7942456 C27.5047721,58.0154991 27.3071769,58.0458232 27.097629,57.990229 C26.9560627,57.9526047 26.8229008,57.8869025 26.6828287,57.8434755 C26.3287262,57.7341591 26.0878021,57.8444114 25.9591225,58.1811584 C25.9105642,58.3080703 25.8818027,58.4432183 25.8552823,58.5766817 C25.8140077,58.7876399 25.7120352,58.9212905 25.473539,58.8933998 C25.0591122,58.8443572 24.638709,58.8207718 24.2323129,58.7331689 C23.6996652,58.6187985 23.1832659,58.4316128 22.6504314,58.3170552 C22.3786914,58.2582789 22.3966206,58.1066585 22.3997956,57.912547 C22.4065191,57.5419194 22.4106279,57.1703559 22.3936324,56.7999154 C22.3775708,56.4526861 22.3118303,56.1069541 22.3052936,55.7595376 C22.2909128,55.0139771 22.3019319,54.2680423 22.3004378,53.5219202 C22.2996907,53.0685566 22.1215189,52.6655459 21.8008471,52.410599 C21.7097068,52.8999023 21.328337,53.0754824 20.9196998,53.2153101 C20.7114592,53.2864407 20.57064,53.2128767 20.5032186,52.9994851 C20.2144832,52.0856447 19.9597386,51.1688094 20.0053088,50.194508 C20.0407937,49.4356574 20.0400467,48.6756836 20.0600303,47.9162714 C20.0710493,47.4926703 20.1121371,47.0692563 20.1042931,46.6460295 C20.0824418,45.4386821 20.0146469,44.2313346 20.020063,43.0239871 C20.0230512,42.3714579 20.1141915,41.7159337 20.2090671,41.067897 C20.3553024,40.070759 20.5166655,39.0753057 20.7125798,38.0867782 C20.9232483,37.0250612 21.2898638,36.0191255 22.1288027,35.2653288 C23.0529054,34.4351605 24.0392001,33.6860435 25.13251,33.0758182 C26.1460721,32.5101432 27.2128617,32.0929063 28.351555,31.8664117 C28.823318,31.7726317 29.3068471,31.6921418 29.7857071,31.6880238 C30.5518084,31.6814723 31.3210847,31.7138554 32.0836375,31.7866706 C32.6499026,31.8405801 33.2070162,31.9863977 33.7687989,32.0872908 C34.5715058,32.2316109 35.372345,32.3877237 36.1786003,32.5101432 C36.9542266,32.6280701 37.7339616,32.7242836 38.5150039,32.8032759 C39.2095751,32.8734705 39.9110564,32.883017 40.6043202,32.961635 C41.822948,33.1005267 42.9814381,32.8409002 44.1328312,32.5056507 C45.0515178,32.2385368 45.9716985,31.9839643 46.9408111,31.9701125 C47.2534521,31.9654329 47.5660932,31.9231289 47.8783607,31.9266855 C48.7346685,31.9360448 49.4918052,31.6515226 50.224476,31.238591 C50.89869,30.8587913 51.5850435,30.4866662 52.3800931,30.3951324 C52.4383631,30.3880194 52.4971934,30.3457154 52.5468724,30.3086527 C53.2332259,29.795764 53.9066929,29.2649054 54.6087345,28.774479 C54.8845833,28.5822394 55.2203829,28.4701152 55.5352651,28.3372133 C55.9087909,28.1797902 56.2330112,27.9695807 56.3775657,27.5778011 C56.4173462,27.4703566 56.4123036,27.3191106 56.3672938,27.2131635 C56.2188173,26.8625647 56.2042498,26.5097198 56.2619595,26.1411512 C56.2993121,25.9013664 56.305662,25.6567147 56.3258324,25.4143093 C56.3601968,24.9938903 56.4022184,24.5738457 56.4278049,24.1528652 C56.4599281,23.623317 56.432474,23.1025665 56.2167629,22.6001602 C56.1698854,22.4914053 56.2031292,22.3264947 56.2492596,22.2059472 C56.3224707,22.0144562 56.5686241,21.9349023 56.7391386,22.0610655 C57.2110884,22.4096052 57.7263672,22.7272592 57.9921308,23.2773979 C58.2588282,23.8299699 58.5064757,24.3924628 58.7470263,24.9568276 C59.0665776,25.7072549 59.2854637,26.5035426 59.7803853,27.1725442 C59.90589,27.34176 60.0584752,27.4952523 60.2170369,27.6358287 C60.3612179,27.7638637 60.5397632,27.7095798 60.6295961,27.5798602 C60.8318603,27.2876634 61.0705433,27.2812991 61.3753403,27.3864974 C61.6043116,27.4656769 61.8489709,27.5115374 62.0904553,27.5411127 C62.5762256,27.6004506 62.9738437,27.4308604 63.2009474,26.9954666 C63.5339456,26.3580994 63.8527498,25.7119345 64.1465278,25.0564103 C64.3930548,24.5064589 64.6332319,23.9473353 65.0456043,23.5057644 C65.3539498,23.1757561 65.736627,22.9058343 66.1150086,22.6510747 C66.2631115,22.5513047 66.4894681,22.5599152 66.6818339,22.5312758 C66.8280692,22.5097495 66.86841,22.5995986 66.858138,22.7281952 C66.8403956,22.9541282 66.8413294,23.1826819 66.8036033,23.4054329 C66.7826858,23.5317832 66.7348746,23.6970681 66.6405593,23.7616472 C66.2373382,24.0371844 66.0660767,24.4394464 65.9648512,24.8791455 C65.7243006,25.9227056 65.4999984,26.9700093 65.2641169,28.0143181 C65.1287138,28.61612 64.9469935,29.2010751 64.5706663,29.7072252 C64.4784055,29.8311421 64.4739232,29.9494434 64.562262,30.0817836 C65.0941627,30.8771355 65.3397559,31.7707598 65.4068037,32.7050034 C65.4542415,33.368015 65.4099787,34.0373909 65.4174492,34.7035847 C65.4241727,35.2872296 65.5117645,35.8564611 65.6665909,36.4253183 C65.8139468,36.9670336 65.87838,37.5321471 65.9585013,38.0899604 C65.9999626,38.3786007 66.0165845,38.6745412 66.0089272,38.9659893 C65.983901,39.9303698 65.4605914,40.3386217 64.5566591,40.4503715 C64.1194472,40.5044682 63.6850368,40.5763475 63.2483852,40.6332519 C62.7049052,40.7045696 62.2508847,40.4949217 61.8446754,40.1667852 C61.5540724,39.9318672 61.3807564,39.661384 61.4959891,39.251073 C61.5391313,39.0979551 61.454341,38.8883072 61.3777682,38.7275147 C61.0445832,38.0280019 60.4267716,37.6339761 59.757787,37.3004113 C59.2585698,37.0516416 58.7548704,36.811108 58.3649095,36.3961174 C58.2535988,36.2774417 58.1208104,36.2744467 58.0014689,36.4011714 C57.8464557,36.5655204 57.6821044,36.722382 57.5397911,36.8970262 C57.3194109,37.1676967 57.0855838,37.4336875 56.9100267,37.731687 C56.650613,38.1725093 56.4821529,38.6704231 56.193044,39.0885959 C55.8150359,39.6353652 55.3718476,40.1409536 54.931274,40.642424 C54.1130658,41.5734854 53.2743138,42.4858283 52.7244838,43.6123116 C52.5044772,44.0626803 52.2706501,44.5091181 52.002085,44.9323449 C51.860332,45.1560317 51.6352828,45.3303016 51.4403023,45.5191719 C50.9141913,46.0292528 50.6788701,46.6600685 50.5535522,47.3672559 C50.4760456,47.8037728 50.3066517,48.237482 50.104761,48.6360002 C49.7185354,49.3993433 49.4079487,50.1887053 49.2308975,51.0183121 C48.998938,52.1054864 48.8125486,53.2022071 48.6276534,54.2985535 C48.5495865,54.7603405 48.477496,55.2311125 48.484593,55.6968304 C48.4997208,56.6887272 48.8110545,57.5817899 49.6128276,58.2339448 C49.8485223,58.4258101 50.1574281,58.5280134 50.4256196,58.6830031 C50.608834,58.7885759 50.7920484,58.9007001 50.9524777,59.0360353 C51.1280348,59.1840991 51.1112261,59.4433513 50.9128839,59.5528549 C50.7532017,59.6412065 50.5647579,59.6887517 50.3830377,59.7271247 C49.8713074,59.8351309 49.4258779,59.6209905 48.9739118,59.4323073 C48.8306646,59.3724079 48.6704221,59.3521919 48.5178368,59.3136316 C48.506631,59.3329117 48.4952385,59.3529406 48.483846,59.3724079" id="Fill-1"></path>
            </g>
        </g>
    </g>
</svg>