<?xml version="1.0" encoding="UTF-8"?>
<svg width="47px" height="39px" viewBox="0 0 47 39" version="1.1" xmlns="http://www.w3.org/2000/svg" xmlns:xlink="http://www.w3.org/1999/xlink">
    <!-- Generator: Sketch 50.2 (55047) - http://www.bohemiancoding.com/sketch -->
    <title>Fill-1</title>
    <desc>Created with Sketch.</desc>
    <defs></defs>
    <g id="Page-1" stroke="none" stroke-width="1" fill="none" fill-rule="evenodd">
        <g id="donkey2" fill="#FFFFFF" fill-rule="nonzero">
            <path d="M4.3862056,31.2639784 C4.3710778,31.2856919 4.35595,31.3070311 4.3408222,31.3283703 C4.3473589,31.3850875 4.3550162,31.4414304 4.3602455,31.4977733 C4.4269199,32.198222 4.4777194,32.9001682 4.5649376,33.597622 C4.6370281,34.1780847 4.8473231,34.7188641 5.146704,35.2255756 C5.2617499,35.4206231 5.422366,35.4002198 5.5859703,35.3217891 C5.7447187,35.2457917 5.7647023,35.1205645 5.7000824,34.9554667 C5.615292,34.7383314 5.5592632,34.5099649 5.4888536,34.2874011 C5.1887256,33.3348133 4.8906521,32.3814768 4.5813728,31.4320711 C4.5587745,31.3626252 4.4532534,31.3193854 4.3862056,31.2639784 M2.2068696,20.678068 C2.1769875,20.6782552 2.1469187,20.6786296 2.1172234,20.6788167 C2.1011618,20.7585578 2.0703459,20.8386733 2.0710929,20.9182272 C2.0847266,22.8161026 2.1020956,24.7134164 2.1187175,26.6111046 C2.1187175,26.6193407 2.1155425,26.6298231 2.1192778,26.6354387 C2.1936094,26.7490604 2.2473971,26.9186506 2.3512373,26.9577724 C2.4334129,26.9888452 2.6117715,26.8873906 2.6872237,26.796044 C2.8678234,26.5781599 3.0232101,26.3374391 3.1703792,26.0950337 C3.4456677,25.6427932 3.595078,25.1366431 3.5820046,24.6205723 C3.5674371,24.0504048 3.4223224,23.4953993 3.1718733,22.9656639 C2.8894879,22.3683545 2.655474,21.7491443 2.4005427,21.1394806 C2.3361095,20.9854268 2.2713027,20.8317474 2.2068696,20.678068 M28.483846,37.3724079 C28.6244784,37.6355909 28.7688461,37.8965278 28.904436,38.1623314 C29.0594492,38.4655721 28.9832499,38.6709148 28.6519326,38.7573946 C28.3613295,38.8332048 28.0585869,38.8989069 27.7607001,38.9024635 C27.1077771,38.911074 26.4544806,38.8779421 25.8013708,38.8605339 C25.5667966,38.8541696 25.4151452,38.7802312 25.3327827,38.5196688 C25.0948468,37.7669953 24.8048041,37.0339762 24.6524056,36.2515402 C24.5143878,35.54454 24.5396008,34.8639329 24.6903184,34.1672279 C24.8742799,33.3155332 24.9581364,32.4570998 24.7825793,31.5857505 C24.7078741,31.2143742 24.698536,30.8289589 24.6729495,30.4491592 C24.633169,29.8569038 24.5777004,29.2638997 24.5791945,28.6714571 C24.5818092,27.9397483 24.6400792,27.2078524 24.6656657,26.4757693 C24.6778053,26.1319093 24.6759377,25.7873005 24.6675334,25.4432532 C24.6632378,25.2671115 24.5442699,25.1707109 24.3728215,25.1916757 C24.0166647,25.2351028 23.6629358,25.2976228 23.3084599,25.3545272 C22.5350748,25.4788185 21.7629971,25.611346 20.9884915,25.7274011 C19.7911547,25.9070993 18.5826121,25.9121533 17.3787386,25.8674159 C15.8476565,25.8110731 14.3193759,25.6849099 12.866174,25.1409484 C12.3927301,24.9638708 11.9286243,24.7620846 11.4607833,24.5711553 C11.064846,24.4096141 10.897133,24.3882749 10.5908418,24.7237116 C9.8006481,25.5881349 8.9798253,26.4269139 8.2256768,27.3209126 C7.5305453,28.1445294 7.0686808,29.1092843 6.9153484,30.1773657 C6.7943261,31.0191396 6.9403747,31.8440667 7.2681435,32.639793 C7.5708861,33.375807 8.05068,34.0023174 8.4793008,34.6613981 C8.729563,35.0462518 8.707525,35.1252441 8.2570529,35.272372 C7.9694381,35.3663392 7.7163744,35.4887587 7.5936712,35.7942456 C7.5047721,36.0154991 7.3071769,36.0458232 7.097629,35.990229 C6.9560627,35.9526047 6.8229008,35.8869025 6.6828287,35.8434755 C6.3287262,35.7341591 6.0878021,35.8444114 5.9591225,36.1811584 C5.9105642,36.3080703 5.8818027,36.4432183 5.8552823,36.5766817 C5.8140077,36.7876399 5.7120352,36.9212905 5.473539,36.8933998 C5.0591122,36.8443572 4.638709,36.8207718 4.2323129,36.7331689 C3.6996652,36.6187985 3.1832659,36.4316128 2.6504314,36.3170552 C2.3786914,36.2582789 2.3966206,36.1066585 2.3997956,35.912547 C2.4065191,35.5419194 2.4106279,35.1703559 2.3936324,34.7999154 C2.3775708,34.4526861 2.3118303,34.1069541 2.3052936,33.7595376 C2.2909128,33.0139771 2.3019319,32.2680423 2.3004378,31.5219202 C2.2996907,31.0685566 2.1215189,30.6655459 1.8008471,30.410599 C1.7097068,30.8999023 1.328337,31.0754824 0.9196998,31.2153101 C0.7114592,31.2864407 0.57064,31.2128767 0.5032186,30.9994851 C0.2144832,30.0856447 -0.0402614,29.1688094 0.0053088,28.194508 C0.0407937,27.4356574 0.0400467,26.6756836 0.0600303,25.9162714 C0.0710493,25.4926703 0.1121371,25.0692563 0.1042931,24.6460295 C0.0824418,23.4386821 0.0146469,22.2313346 0.020063,21.0239871 C0.0230512,20.3714579 0.1141915,19.7159337 0.2090671,19.067897 C0.3553024,18.070759 0.5166655,17.0753057 0.7125798,16.0867782 C0.9232483,15.0250612 1.2898638,14.0191255 2.1288027,13.2653288 C3.0529054,12.4351605 4.0392001,11.6860435 5.13251,11.0758182 C6.1460721,10.5101432 7.2128617,10.0929063 8.351555,9.8664117 C8.823318,9.7726317 9.3068471,9.6921418 9.7857071,9.6880238 C10.5518084,9.6814723 11.3210847,9.7138554 12.0836375,9.7866706 C12.6499026,9.8405801 13.2070162,9.9863977 13.7687989,10.0872908 C14.5715058,10.2316109 15.372345,10.3877237 16.1786003,10.5101432 C16.9542266,10.6280701 17.7339616,10.7242836 18.5150039,10.8032759 C19.2095751,10.8734705 19.9110564,10.883017 20.6043202,10.961635 C21.822948,11.1005267 22.9814381,10.8409002 24.1328312,10.5056507 C25.0515178,10.2385368 25.9716985,9.9839643 26.9408111,9.9701125 C27.2534521,9.9654329 27.5660932,9.9231289 27.8783607,9.9266855 C28.7346685,9.9360448 29.4918052,9.6515226 30.224476,9.238591 C30.89869,8.8587913 31.5850435,8.4866662 32.3800931,8.3951324 C32.4383631,8.3880194 32.4971934,8.3457154 32.5468724,8.3086527 C33.2332259,7.795764 33.9066929,7.2649054 34.6087345,6.774479 C34.8845833,6.5822394 35.2203829,6.4701152 35.5352651,6.3372133 C35.9087909,6.1797902 36.2330112,5.9695807 36.3775657,5.5778011 C36.4173462,5.4703566 36.4123036,5.3191106 36.3672938,5.2131635 C36.2188173,4.8625647 36.2042498,4.5097198 36.2619595,4.1411512 C36.2993121,3.9013664 36.305662,3.6567147 36.3258324,3.4143093 C36.3601968,2.9938903 36.4022184,2.5738457 36.4278049,2.1528652 C36.4599281,1.623317 36.432474,1.1025665 36.2167629,0.6001602 C36.1698854,0.4914053 36.2031292,0.3264947 36.2492596,0.2059472 C36.3224707,0.0144562 36.5686241,-0.0650977 36.7391386,0.0610655 C37.2110884,0.4096052 37.7263672,0.7272592 37.9921308,1.2773979 C38.2588282,1.8299699 38.5064757,2.3924628 38.7470263,2.9568276 C39.0665776,3.7072549 39.2854637,4.5035426 39.7803853,5.1725442 C39.90589,5.34176 40.0584752,5.4952523 40.2170369,5.6358287 C40.3612179,5.7638637 40.5397632,5.7095798 40.6295961,5.5798602 C40.8318603,5.2876634 41.0705433,5.2812991 41.3753403,5.3864974 C41.6043116,5.4656769 41.8489709,5.5115374 42.0904553,5.5411127 C42.5762256,5.6004506 42.9738437,5.4308604 43.2009474,4.9954666 C43.5339456,4.3580994 43.8527498,3.7119345 44.1465278,3.0564103 C44.3930548,2.5064589 44.6332319,1.9473353 45.0456043,1.5057644 C45.3539498,1.1757561 45.736627,0.9058343 46.1150086,0.6510747 C46.2631115,0.5513047 46.4894681,0.5599152 46.6818339,0.5312758 C46.8280692,0.5097495 46.86841,0.5995986 46.858138,0.7281952 C46.8403956,0.9541282 46.8413294,1.1826819 46.8036033,1.4054329 C46.7826858,1.5317832 46.7348746,1.6970681 46.6405593,1.7616472 C46.2373382,2.0371844 46.0660767,2.4394464 45.9648512,2.8791455 C45.7243006,3.9227056 45.4999984,4.9700093 45.2641169,6.0143181 C45.1287138,6.61612 44.9469935,7.2010751 44.5706663,7.7072252 C44.4784055,7.8311421 44.4739232,7.9494434 44.562262,8.0817836 C45.0941627,8.8771355 45.3397559,9.7707598 45.4068037,10.7050034 C45.4542415,11.368015 45.4099787,12.0373909 45.4174492,12.7035847 C45.4241727,13.2872296 45.5117645,13.8564611 45.6665909,14.4253183 C45.8139468,14.9670336 45.87838,15.5321471 45.9585013,16.0899604 C45.9999626,16.3786007 46.0165845,16.6745412 46.0089272,16.9659893 C45.983901,17.9303698 45.4605914,18.3386217 44.5566591,18.4503715 C44.1194472,18.5044682 43.6850368,18.5763475 43.2483852,18.6332519 C42.7049052,18.7045696 42.2508847,18.4949217 41.8446754,18.1667852 C41.5540724,17.9318672 41.3807564,17.661384 41.4959891,17.251073 C41.5391313,17.0979551 41.454341,16.8883072 41.3777682,16.7275147 C41.0445832,16.0280019 40.4267716,15.6339761 39.757787,15.3004113 C39.2585698,15.0516416 38.7548704,14.811108 38.3649095,14.3961174 C38.2535988,14.2774417 38.1208104,14.2744467 38.0014689,14.4011714 C37.8464557,14.5655204 37.6821044,14.722382 37.5397911,14.8970262 C37.3194109,15.1676967 37.0855838,15.4336875 36.9100267,15.731687 C36.650613,16.1725093 36.4821529,16.6704231 36.193044,17.0885959 C35.8150359,17.6353652 35.3718476,18.1409536 34.931274,18.642424 C34.1130658,19.5734854 33.2743138,20.4858283 32.7244838,21.6123116 C32.5044772,22.0626803 32.2706501,22.5091181 32.002085,22.9323449 C31.860332,23.1560317 31.6352828,23.3303016 31.4403023,23.5191719 C30.9141913,24.0292528 30.6788701,24.6600685 30.5535522,25.3672559 C30.4760456,25.8037728 30.3066517,26.237482 30.104761,26.6360002 C29.7185354,27.3993433 29.4079487,28.1887053 29.2308975,29.0183121 C28.998938,30.1054864 28.8125486,31.2022071 28.6276534,32.2985535 C28.5495865,32.7603405 28.477496,33.2311125 28.484593,33.6968304 C28.4997208,34.6887272 28.8110545,35.5817899 29.6128276,36.2339448 C29.8485223,36.4258101 30.1574281,36.5280134 30.4256196,36.6830031 C30.608834,36.7885759 30.7920484,36.9007001 30.9524777,37.0360353 C31.1280348,37.1840991 31.1112261,37.4433513 30.9128839,37.5528549 C30.7532017,37.6412065 30.5647579,37.6887517 30.3830377,37.7271247 C29.8713074,37.8351309 29.4258779,37.6209905 28.9739118,37.4323073 C28.8306646,37.3724079 28.6704221,37.3521919 28.5178368,37.3136316 C28.506631,37.3329117 28.4952385,37.3529406 28.483846,37.3724079" id="Fill-1"></path>
        </g>
    </g>
</svg>