<?xml version="1.0" encoding="UTF-8"?>
<svg width="438px" height="472px" viewBox="0 0 438 472" version="1.1" xmlns="http://www.w3.org/2000/svg" xmlns:xlink="http://www.w3.org/1999/xlink">
    <!-- Generator: Sketch 40.3 (33839) - http://www.bohemiancoding.com/sketch -->
    <title>Logo Copy</title>
    <desc>Created with Sketch.</desc>
    <defs></defs>
    <g id="Payments-Demo" stroke="none" stroke-width="1" fill="none" fill-rule="evenodd">
        <g id="Artboard" transform="translate(-1.000000, -1.000000)" fill="#00ADEE">
            <g id="Logo-Copy" transform="translate(1.000000, 1.000000)">
                <polygon id="Fill-1" points="0.581149893 118.25619 85.3596945 118.25619 85.3596945 461.378147 0.581149893 461.378147"></polygon>
                <g id="Group-11">
                    <path d="M334.299899,368.352675 C346.889513,349.624857 353.21258,325.292714 353.21258,295.477999 C353.21258,253.735183 343.109803,223.890952 322.928977,205.974821 C310.551309,195.109292 296.160152,189.659925 279.783763,189.659925 C254.812949,189.659925 236.518445,199.55512 224.797812,219.256961 C213.161956,238.984629 207.28751,263.442214 207.28751,292.662923 C207.28751,324.137906 213.250267,349.344456 225.094536,368.197717 C236.967065,387.113698 254.957779,396.540328 279.18678,396.540328 C303.320406,396.540328 321.735012,387.146903 334.299899,368.352675 M314.182657,125.366987 C329.531106,134.450495 341.848722,147.009497 352.44604,163.103024 L352.44604,1.26752339 L437.224585,1.26752339 L437.224585,462.452949 L355.97848,462.452949 L355.97848,413.733321 C341.848722,433.962758 329.124876,448.709623 313.596272,457.889058 C297.940501,467.031598 278.204762,471.665589 255.028428,471.665589 C216.86042,471.665589 184.545665,455.538857 158.490392,423.281704 C132.40686,391.057756 119.294445,349.687578 119.294445,299.237582 C119.294445,241.021224 132.074811,195.201529 157.741515,161.815394 C183.40822,128.466153 218.089709,111.77493 261.061834,111.77493 C280.815235,111.77493 298.802416,116.287169 314.182657,125.366987" id="Fill-2"></path>
                    <polygon id="Fill-5" points="0.581149893 51.8454892 276.11142 51.8454892 276.11142 0.192721495 0.581149893 0.192721495"></polygon>
                </g>
            </g>
        </g>
    </g>
</svg>