<svg width="20" height="20" viewBox="0 0 20 20" fill="none" xmlns="http://www.w3.org/2000/svg">
<circle cx="9.75" cy="6" r="1.25" fill="#595959"/>
<path d="M8 9.25C7.58579 9.25 7.25 9.58579 7.25 10C7.25 10.4142 7.58579 10.75 8 10.75L8 9.25ZM12 16.75C12.4142 16.75 12.75 16.4142 12.75 16C12.75 15.5858 12.4142 15.25 12 15.25L12 16.75ZM8.01041 15.25C7.5962 15.25 7.26041 15.5858 7.26041 16C7.26041 16.4142 7.5962 16.75 8.01041 16.75L8.01041 15.25ZM10.0102 10L10.7602 10C10.7602 9.58579 10.4245 9.25 10.0102 9.25L10.0102 10ZM10.0102 16.75L12 16.75L12 15.25L10.0102 15.25L10.0102 16.75ZM8.01041 16.75L10.0102 16.75L10.0102 15.25L8.01041 15.25L8.01041 16.75ZM8 10.75L10.0102 10.75L10.0102 9.25L8 9.25L8 10.75ZM9.26025 10L9.26025 16L10.7602 16L10.7602 10L9.26025 10Z" fill="#595959"/>
</svg>
