<?xml version="1.0" encoding="UTF-8"?>
<svg width="53px" height="44px" viewBox="0 0 53 44" version="1.1" xmlns="http://www.w3.org/2000/svg" xmlns:xlink="http://www.w3.org/1999/xlink">
    <!-- Generator: Sketch 44.1 (41455) - http://www.bohemiancoding.com/sketch -->
    <title>Fill 1</title>
    <desc>Created with Sketch.</desc>
    <defs></defs>
    <g id="Reservation" stroke="none" stroke-width="1" fill="none" fill-rule="evenodd" fill-opacity="0.95">
        <g id="First-look-at-the-app-Copy-7" transform="translate(-162.000000, -52.000000)" fill="#FF6400">
            <path d="M166.960961,87.3607191 C166.943851,87.3852779 166.926741,87.4094133 166.909631,87.4335487 C166.917024,87.497698 166.925685,87.5614239 166.931599,87.6251498 C167.007011,88.4173833 167.064467,89.2113105 167.163114,90.0001565 C167.244651,90.6566814 167.482502,91.2683229 167.821113,91.8414325 C167.951234,92.0620384 168.132897,92.0389616 168.31794,91.9502534 C168.49749,91.8642976 168.520092,91.722661 168.447005,91.5359293 C168.351104,91.2903412 168.287733,91.0320502 168.208097,90.7803223 C167.868641,89.7029102 167.531509,88.6246512 167.181703,87.5508382 C167.156143,87.4722923 167.036795,87.4233864 166.960961,87.3607191 M164.496051,75.3876618 C164.462254,75.3878735 164.428245,75.388297 164.394658,75.3885087 C164.376492,75.4786988 164.341638,75.5693124 164.342483,75.6592908 C164.357903,77.8058582 164.377548,79.9517905 164.396348,82.0981462 C164.396348,82.1074616 164.392757,82.1193176 164.396982,82.125669 C164.481054,82.2541794 164.541889,82.4459922 164.659337,82.4902404 C164.75228,82.5253849 164.95401,82.410636 165.03935,82.3073196 C165.243615,82.0608846 165.419363,81.7886205 165.585816,81.5144509 C165.897178,81.0029501 166.066167,80.4304757 166.05138,79.8467804 C166.034904,79.2018998 165.870774,78.574168 165.587506,77.9750176 C165.268118,77.2994385 165.00344,76.5990889 164.715103,75.9095366 C164.642226,75.7352961 164.568928,75.5614789 164.496051,75.3876618 M194.216286,94.2695794 C194.375347,94.5672492 194.538632,94.8623784 194.691989,95.1630122 C194.867315,95.5059887 194.781131,95.7382389 194.406398,95.8360507 C194.077716,95.9217949 193.735302,95.9961064 193.398381,96.000129 C192.659901,96.0098678 191.920999,95.9723945 191.182307,95.9527051 C190.916995,95.9455068 190.745472,95.8618798 190.652317,95.567174 C190.383202,94.7158724 190.055153,93.8868007 189.882785,93.0018365 C189.726682,92.202193 189.755199,91.4324012 189.925666,90.644402 C190.133733,89.6811037 190.228578,88.7101836 190.030016,87.7246553 C189.945522,87.3046149 189.93496,86.868696 189.906021,86.4391284 C189.861028,85.7692656 189.798291,85.0985559 189.799981,84.4284813 C189.802938,83.6008916 189.868843,82.7730902 189.897783,81.945077 C189.911513,81.5561586 189.909401,81.1663932 189.899895,80.7772631 C189.895037,80.5780403 189.76048,80.4690076 189.566565,80.4927196 C189.163739,80.5418372 188.763658,80.6125496 188.362733,80.6769107 C187.488005,80.8174887 186.614757,80.9673822 185.738762,81.0986448 C184.38453,81.3018902 183.017623,81.3076064 181.655998,81.2570068 C179.924287,81.1932809 178.195745,81.0505857 176.55212,80.4353451 C176.016637,80.2350637 175.491717,80.0068361 174.962571,79.7908879 C174.514751,79.6081788 174.325062,79.5840434 173.978635,79.9634348 C173.084897,80.9411296 172.156515,81.8898197 171.303546,82.9009654 C170.517326,83.8325066 169.99494,84.9236802 169.821516,86.1317198 C169.684635,87.0837973 169.849821,88.0168205 170.22054,88.9168164 C170.562953,89.7492755 171.105618,90.457882 171.590404,91.2033267 C171.87346,91.6386106 171.848534,91.7279538 171.339033,91.894361 C171.01373,92.0006414 170.727506,92.1391023 170.588724,92.4846194 C170.488176,92.7348652 170.264688,92.7691629 170.027682,92.7062838 C169.867565,92.6637294 169.716954,92.5894178 169.558527,92.5403001 C169.158024,92.4166592 168.88553,92.5413587 168.739989,92.922232 C168.685067,93.0657741 168.652537,93.2186315 168.622541,93.3695836 C168.575858,93.6081851 168.460524,93.7593489 168.190776,93.7278035 C167.722044,93.6723345 167.246552,93.6456585 166.786903,93.5465764 C166.184459,93.4172192 165.600392,93.2055053 164.997736,93.0759364 C164.690388,93.0094582 164.710667,92.8379699 164.714258,92.6184226 C164.721862,92.199229 164.72651,91.7789769 164.707287,91.359995 C164.689121,90.9672657 164.614766,90.5762301 164.607373,90.1832891 C164.591107,89.3400325 164.60357,88.4963526 164.60188,87.6524609 C164.601035,87.1396898 164.399517,86.6838697 164.036825,86.3955153 C163.933742,86.9489355 163.502398,87.1475232 163.040215,87.3056735 C162.804687,87.3861248 162.645415,87.3029212 162.569159,87.0615673 C162.242588,86.02798 161.954463,84.9910052 162.006004,83.8890343 C162.046139,83.030746 162.045294,82.1711875 162.067896,81.3122641 C162.080359,80.8331555 162.126831,80.3542587 162.117959,79.8755735 C162.093245,78.5100187 162.016566,77.1444639 162.022692,75.7789091 C162.026072,75.0408744 162.129155,74.2994523 162.236463,73.5664987 C162.40186,72.4386986 162.584368,71.312804 162.805954,70.1947428 C163.044228,68.9939015 163.458884,67.8561509 164.407755,67.0035789 C165.452949,66.0646277 166.568485,65.2173486 167.805059,64.5271612 C168.951436,63.8873617 170.158014,63.4154514 171.445918,63.1592776 C171.9795,63.0532089 172.526389,62.9621719 173.067998,62.9575142 C173.934487,62.9501042 174.804567,62.9867307 175.667042,63.0690874 C176.307509,63.130061 176.937625,63.2949862 177.573022,63.4091 C178.480913,63.5723314 179.386692,63.7489008 180.298597,63.8873617 C181.175859,64.0207415 182.057768,64.1295624 182.941156,64.2189057 C183.726742,64.2982984 184.520143,64.3090958 185.30425,64.3980157 C186.682564,64.5551074 187.992859,64.2614602 189.295127,63.8822806 C190.334196,63.5801648 191.374954,63.2922339 192.471057,63.2765671 C192.824665,63.2712742 193.178274,63.2234269 193.53146,63.2274494 C194.499976,63.2380351 195.356326,62.91623 196.185003,62.4491891 C196.947564,62.0196215 197.723856,61.5987343 198.623086,61.4952061 C198.688992,61.487161 198.755531,61.4393137 198.81172,61.3973943 C199.588011,60.8172982 200.349727,60.2168775 201.143762,59.662187 C201.455757,59.4447568 201.835559,59.3179402 202.191703,59.1676233 C202.614174,58.9895719 202.98088,58.7518172 203.144376,58.3086999 C203.189369,58.1871762 203.183666,58.0161113 203.132758,57.8962812 C202.964826,57.4997411 202.948349,57.1006603 203.013621,56.6837956 C203.055868,56.4125901 203.06305,56.13588 203.085864,55.8617105 C203.124731,55.386201 203.172259,54.911115 203.201198,54.4349704 C203.237531,53.8360317 203.206479,53.2470436 202.962502,52.6788034 C202.909482,52.5557976 202.947082,52.3692777 202.999257,52.2329339 C203.082061,52.0163506 203.36047,51.9263721 203.553328,52.0690673 C204.087121,52.4632786 204.669921,52.8225572 204.970509,53.4447844 C205.272154,54.0697639 205.552252,54.7059642 205.824324,55.3442817 C206.185748,56.1930428 206.433316,57.0936738 206.993091,57.8503393 C207.135042,58.0417287 207.307621,58.2153341 207.48696,58.3743313 C207.650034,58.5191436 207.851976,58.4577465 207.95358,58.3110288 C208.182348,57.9805434 208.452308,57.9733451 208.797044,58.0923283 C209.056019,58.1818833 209.332738,58.2337532 209.605866,58.267204 C210.15529,58.3343173 210.605011,58.1425045 210.861874,57.6500579 C211.238507,56.9291721 211.599086,56.1983356 211.93136,55.4569135 C212.210191,54.834898 212.481841,54.2025085 212.948249,53.7030753 C213.296999,53.3298237 213.729821,53.0245322 214.157785,52.7363896 C214.325295,52.6235461 214.581313,52.6332849 214.798885,52.6008927 C214.964283,52.5765456 215.00991,52.6781683 214.998292,52.8236157 C214.978225,53.0791544 214.979281,53.3376571 214.936611,53.5895967 C214.912953,53.7325036 214.858876,53.919447 214.752202,53.9924883 C214.296144,54.3041312 214.102441,54.7591044 213.987951,55.2564204 C213.71588,56.4367255 213.462186,57.6212649 213.195395,58.8024168 C213.042249,59.4830771 212.836717,60.1446831 212.411077,60.7171575 C212.306726,60.8573121 212.301657,60.9911153 212.401571,61.140797 C213.00317,62.0403695 213.280945,63.0510917 213.356779,64.1077559 C213.410433,64.8576466 213.36037,65.6147356 213.36882,66.3682254 C213.376424,67.0283494 213.475494,67.6721715 213.650608,68.3155701 C213.817273,68.9282701 213.890149,69.5674345 213.980769,70.1983419 C214.027664,70.5248048 214.046464,70.8595245 214.037803,71.1891631 C214.009498,72.2799132 213.417615,72.7416613 212.395234,72.8680545 C211.900731,72.9292398 211.409397,73.0105379 210.915528,73.074899 C210.300832,73.155562 209.787318,72.9184424 209.32788,72.5473079 C208.999197,72.2816069 208.80317,71.9756803 208.933503,71.5116034 C208.982298,71.3384214 208.886397,71.1013018 208.79979,70.9194396 C208.422946,70.1282646 207.724178,69.6826068 206.967532,69.3053326 C206.402899,69.0239648 205.833196,68.7519124 205.392136,68.2825427 C205.266239,68.1483161 205.11605,68.1449286 204.981071,68.288259 C204.805745,68.4741438 204.619858,68.65156 204.458896,68.8490891 C204.209638,69.1552275 203.945171,69.4560729 203.746609,69.7931215 C203.453203,70.2917078 203.262668,70.8548668 202.935675,71.3278357 C202.508134,71.9462521 202.006872,72.5180914 201.508566,73.0852729 C200.583143,74.138338 199.634483,75.1702316 199.012605,76.444326 C198.763769,76.9537097 198.499302,77.4586474 198.195545,77.9373326 C198.035217,78.1903307 197.780678,78.3874363 197.560148,78.6010557 C196.965097,79.1779761 196.69894,79.891452 196.557201,80.6913072 C196.469538,81.1850241 196.277947,81.6755652 196.049601,82.1263042 C195.612766,82.9896735 195.261481,83.8824711 195.061229,84.8207872 C194.798874,86.0504217 194.588061,87.2908535 194.378938,88.5308619 C194.290641,89.0531602 194.209104,89.5856207 194.217131,90.1123649 C194.234241,91.234237 194.586371,92.2443241 195.493206,92.9819354 C195.759786,93.1989421 196.10917,93.3145379 196.412504,93.4898371 C196.619726,93.6092437 196.826949,93.7360604 197.0084,93.8891295 C197.206962,94.0565952 197.187951,94.349819 196.963618,94.4736716 C196.783012,94.5736006 196.569875,94.627376 196.364342,94.6707773 C195.785557,94.7929362 195.281759,94.5507355 194.770569,94.3373279 C194.608551,94.2695794 194.427311,94.2467143 194.254731,94.2031013 C194.242057,94.2249078 194.229172,94.2475612 194.216286,94.2695794" id="Fill-1"></path>
        </g>
    </g>
</svg>