<?xml version="1.0" encoding="UTF-8"?>
<svg width="66px" height="19px" viewBox="0 0 66 19" version="1.1" xmlns="http://www.w3.org/2000/svg" xmlns:xlink="http://www.w3.org/1999/xlink">
    <!-- Generator: Sketch 46.2 (44496) - http://www.bohemiancoding.com/sketch -->
    <title>Group 2</title>
    <desc>Created with Sketch.</desc>
    <defs></defs>
    <g id="Website" stroke="none" stroke-width="1" fill="none" fill-rule="evenodd">
        <g id="Group-2" fill="#FFFFFF">
            <g id="Group-10-Copy" transform="translate(0.000000, 1.000000)">
                <path d="M18.554312,0.000192540962 C18.5362232,6.42521259e-05 18.5181191,8.84849996e-16 18.5,8.8817842e-16 L18.5,0 L7.5,0 L7.5,0 C3.35786438,7.6089797e-16 -5.07265313e-16,3.35786438 0,7.5 L0,7.5 L0,7.5 C5.07265313e-16,11.6421356 3.35786438,15 7.5,15 L7.5,15 L18.5,15 C18.5181191,15 18.5362232,14.9999357 18.554312,14.9998075 C14.4963765,14.9706081 11.2156863,11.6240165 11.2156863,7.5 C11.2156863,3.37598347 14.4963765,0.0293918634 18.554312,0.000192540962 Z" id="Combined-Shape" opacity="0.567368659"></path>
                <path d="M18.6078431,12.7241379 C21.4515681,12.7241379 23.7568627,10.3852117 23.7568627,7.5 C23.7568627,4.61478829 21.4515681,2.27586207 18.6078431,2.27586207 C15.7641181,2.27586207 13.4588235,4.61478829 13.4588235,7.5 C13.4588235,10.3852117 15.7641181,12.7241379 18.6078431,12.7241379 Z M18.6078431,15 C14.5252676,15 11.2156863,11.6421356 11.2156863,7.5 C11.2156863,3.35786438 14.5252676,0 18.6078431,0 C22.6904186,0 26,3.35786438 26,7.5 C26,11.6421356 22.6904186,15 18.6078431,15 Z" id="Oval" fill-rule="nonzero"></path>
            </g>
            <path d="M32.9473413,4.15722925 C35.6961983,4.15722925 37.443613,6.34029687 37.443613,9.81858164 C37.443613,13.2864211 35.7064171,15.479934 32.9882165,15.479934 C31.4247402,15.479934 30.208703,14.7592084 29.5955751,13.5162177 L29.5444811,13.5162177 L29.5444811,19 L27,19 L27,4.28257284 L29.4831683,4.28257284 L29.4831683,6.14183617 L29.5342623,6.14183617 C30.1269526,4.93018142 31.4247402,4.15722925 32.9473413,4.15722925 Z M32.1707125,13.3282023 C33.7852828,13.3282023 34.8378192,11.9494228 34.8378192,9.81858164 C34.8378192,7.68774052 33.7852828,6.29851567 32.1707125,6.29851567 C30.5970174,6.29851567 29.5342623,7.71907642 29.5240435,9.81858164 C29.5342623,11.9285322 30.5867986,13.3282023 32.1707125,13.3282023 Z M39.2329786,1.69213854 L41.7774596,1.69213854 L41.7774596,4.28257284 L43.8212195,4.28257284 L43.8212195,6.28807037 L41.7774596,6.28807037 L41.7774596,12.0329852 C41.7774596,12.9417262 42.1862116,13.3699835 43.085466,13.3699835 C43.3204984,13.3699835 43.6474999,13.3386476 43.8110007,13.317757 L43.8110007,15.3023639 C43.5350931,15.3650357 43.034372,15.4068169 42.4927756,15.4068169 C40.1526705,15.4068169 39.2329786,14.5503024 39.2329786,12.3985706 L39.2329786,6.28807037 L37.6797211,6.28807037 L37.6797211,4.28257284 L39.2329786,4.28257284 L39.2329786,1.69213854 Z M50.4550548,10.5079714 L43.7413035,10.5079714 L43.7413035,8.1891149 L50.4550548,8.1891149 L50.4550548,10.5079714 Z M52.2239827,15.3545904 L54.7684638,15.3545904 L54.7684638,4.28257284 L52.2239827,4.28257284 L52.2239827,15.3545904 Z M53.4911138,2.8306762 C54.2779614,2.8306762 54.911527,2.20395822 54.911527,1.42056075 C54.911527,0.616272677 54.2779614,0 53.4911138,0 C52.7144851,0 52.0809195,0.616272677 52.0809195,1.42056075 C52.0809195,2.20395822 52.7144851,2.8306762 53.4911138,2.8306762 Z M56.3534533,15.3545904 L58.8979344,15.3545904 L58.8979344,9.01429357 C58.8979344,7.41616273 59.7971887,6.32985157 61.2789147,6.32985157 C62.7504218,6.32985157 63.4555189,7.20725673 63.4555189,8.77405168 L63.4555189,15.3545904 L66,15.3545904 L66,8.2517867 C66,5.69268829 64.6408997,4.13633865 62.2497006,4.13633865 C60.5840363,4.13633865 59.480406,4.84661902 58.8468404,6.21495327 L58.7957464,6.21495327 L58.7957464,4.28257284 L56.3534533,4.28257284 L56.3534533,15.3545904 Z" id="pt-in"></path>
        </g>
    </g>
</svg>