<?xml version="1.0" encoding="UTF-8"?>
<svg width="134px" height="134px" viewBox="0 0 134 134" version="1.1" xmlns="http://www.w3.org/2000/svg" xmlns:xlink="http://www.w3.org/1999/xlink">
    <!-- Generator: Sketch 42 (36781) - http://www.bohemiancoding.com/sketch -->
    <title>Artboard</title>
    <desc>Created with Sketch.</desc>
    <defs></defs>
    <g id="Page-1" stroke="none" stroke-width="1" fill="none" fill-rule="evenodd">
        <g id="Artboard">
            <g id="medium-m" transform="translate(-442.000000, -56.000000)">
                <g id="Group" transform="translate(443.000000, 61.000000)">
                    <path d="M91.2551538,0.39314887 C89.232,-0.625479358 87.5769231,0.404651573 87.5769231,2.68218671 L87.5769231,93.2838636 L124.497577,111.873509 C128.560385,113.918434 131.854038,112.486987 131.854038,108.675758 L131.854038,21.429036 C131.854038,21.0647837 131.648423,20.7299272 131.324769,20.5663333 L91.2551538,0.39314887" id="Fill-1" fill="#CCCDC9"></path>
                    <path d="M43.1538462,71.0527628 L85.2745385,2.12856825 C86.46,0.18844573 89.0847692,-0.564342258 91.1079231,0.454285971 L131.223231,20.6504758 C131.483423,20.7821178 131.576077,21.1093058 131.423769,21.358531 L87.4296923,93.3450007 L43.1538462,71.0527628" id="Fill-2" fill="#9EA1A0"></path>
                    <path d="M6.04652581,2.03541073 C2.67417966,0.336844969 1.53187197,1.59319572 3.50806427,4.82673326 L44.1932566,71.3992642 L88.4691027,93.691502 L44.2884489,21.3970155 C44.2262566,21.2947693 44.1361412,21.2129723 44.0295258,21.159293 L6.04652581,2.03541073" id="Fill-3" fill="#797B79"></path>
                    <path d="M44.2771154,109.467756 C44.2771154,113.263648 41.5178077,114.980107 38.1467308,113.282819 L3.67823077,95.9277971 C1.65507692,94.9091689 0,92.2124241 0,89.934889 L0,4.85450941 C0,1.81779589 2.20719231,0.443861958 4.90430769,1.80245896 L44.0385,21.5053106 C44.1844615,21.5794391 44.2771154,21.7289743 44.2771154,21.8925683 L44.2771154,109.467756" id="Fill-4" fill="#515251"></path>
                </g>
            </g>
        </g>
    </g>
</svg>